<svg width="36" height="40" viewBox="0 0 36 40" fill="none" xmlns="http://www.w3.org/2000/svg">
<path d="M35.0586 11.8135C34.5344 11.1875 33.6008 11.1052 32.9748 11.6272L28.8724 15.0733L26.9858 10.3991C26.9186 10.2236 26.8168 10.0763 26.6999 9.94635C26.3143 9.08861 25.645 8.35216 24.7223 7.92545C24.3216 7.7435 23.9079 7.64603 23.4941 7.59838C23.4032 7.55073 23.3209 7.48791 23.2169 7.45542L15.9975 5.44318C15.5925 5.33272 15.1853 5.4042 14.8517 5.59914C14.4553 5.73343 14.1153 6.02151 13.9528 6.43956L11.2344 13.4293C10.9399 14.1896 11.3167 15.0473 12.0792 15.3463C12.8373 15.6408 13.6972 15.2618 13.994 14.4993L16.2899 8.59692L19.578 9.51098C19.4978 9.64094 19.4112 9.76224 19.3462 9.90087L15.1311 19.0372C15.0705 19.1715 15.038 19.3079 14.9947 19.4465L9.87201 28.0348L1.29888 30.9027C0.328498 31.6283 0.122725 32.995 0.83968 33.9654C1.56097 34.938 2.93206 35.1437 3.90027 34.4268L12.6727 31.4052C12.9413 31.2102 13.1362 30.9546 13.2835 30.6796C13.394 30.5626 13.5196 30.4694 13.6041 30.3243L16.6582 25.2038L22.0797 29.824L16.2791 36.361C15.4798 37.2621 15.56 38.6505 16.4654 39.4476C17.3686 40.2512 18.7527 40.1667 19.5563 39.2613L26.7952 31.1063C27.0204 30.855 27.1547 30.5648 27.2457 30.2615C27.2999 30.0969 27.2999 29.9258 27.3128 29.7547C27.3128 29.668 27.3453 29.59 27.3388 29.5099C27.3193 28.9121 27.0768 28.3316 26.5872 27.9179L21.5989 23.6638C21.9584 23.3216 22.2638 22.9143 22.4848 22.4357L25.7165 15.4372L26.7518 18.1946C26.7952 18.4393 26.8775 18.6798 27.0508 18.8812C27.2067 19.0675 27.406 19.1909 27.6183 19.2776C27.6399 19.2884 27.6659 19.2906 27.6919 19.2971C27.8262 19.3447 27.9627 19.3902 28.1034 19.3967C28.2702 19.4119 28.4392 19.3902 28.6103 19.3426C28.6146 19.3404 28.6168 19.3404 28.6168 19.3404C28.6623 19.3296 28.7078 19.3382 28.7533 19.3187C28.9937 19.2278 29.1778 19.074 29.3359 18.8942L35.2232 13.8972C35.8492 13.3708 35.5849 12.4394 35.0586 11.8135Z" fill="#030104"/>
<path d="M27.6118 8.25256C29.8906 8.25256 31.738 6.40516 31.738 4.12628C31.738 1.8474 29.8906 0 27.6118 0C25.3329 0 23.4855 1.8474 23.4855 4.12628C23.4855 6.40516 25.3329 8.25256 27.6118 8.25256Z" fill="#030104"/>
</svg>
