<svg width="40" height="40" viewBox="0 0 40 40" fill="none" xmlns="http://www.w3.org/2000/svg">
<path d="M17.2656 1.48437C12.8906 1.76562 8.60939 3.72656 5.46095 6.88281C2.66408 9.67968 0.898451 13.1328 0.226576 17.1172C-0.00779904 18.5234 -0.0312365 21.1953 0.187513 22.6172C1.3047 29.9687 6.4297 35.8125 13.5234 37.8516C17.0234 38.8594 20.8125 38.7734 24.375 37.6094C27.3203 36.6406 30.2891 34.7187 32.25 32.5C34.1484 30.3594 35.3906 28.2187 36.2109 25.6641L36.4609 24.8828L38.2266 24.8594L40 24.8437L37.6484 20.1328C36.3516 17.5469 35.2656 15.375 35.2344 15.3203C35.1953 15.2422 34.4063 16.7266 32.7813 19.9844C31.4688 22.6172 30.3906 24.7812 30.3906 24.8047C30.3906 24.8281 31.1094 24.8437 31.9922 24.8437C32.875 24.8437 33.5938 24.8594 33.5938 24.875C33.5938 25 33 26.4297 32.6953 27.0234C30.6172 31.1719 26.9219 34.1562 22.4531 35.3125C19.6563 36.0391 16.3672 35.9297 13.6875 35.0234C11.2422 34.2031 9.20314 32.9531 7.43751 31.1797C5.37501 29.1172 3.98439 26.7031 3.25001 23.9062C2.60939 21.4766 2.60939 18.5234 3.25001 16.0937C4.46876 11.4609 7.69532 7.59375 11.9922 5.64062C14.2031 4.64062 16.1484 4.21875 18.5703 4.21875C22.6875 4.21875 26.4375 5.71875 29.4766 8.58593C30.7578 9.79687 31.8438 11.2969 32.7422 13.0937L33.3281 14.2812L34.0859 12.7656C34.5 11.9297 34.8438 11.2031 34.8438 11.1484C34.8438 11 33.8828 9.5 33.2578 8.67187C32.5234 7.70312 30.875 6.05468 29.8672 5.28906C27.4141 3.42187 24.5469 2.1875 21.5391 1.6875C20.8516 1.57031 18.7109 1.39062 18.3203 1.42187C18.2344 1.42187 17.7578 1.45312 17.2656 1.48437Z" fill="black"/>
<path d="M18.7031 16.3906C17.2109 16.8359 16.2969 17.7422 15.9766 19.0703C15.8281 19.7031 15.8281 20.4453 15.9766 21.0781C16.2891 22.4062 17.1016 23.2265 18.4531 23.5937C19.0234 23.75 19.2266 23.7656 20.1562 23.7265C20.8047 23.7031 21.4219 23.6328 21.7578 23.539L22.3047 23.3984L22.3281 21.4219L22.3438 19.4531H20.9766H19.6094V20.1172V20.7812H20.1953H20.7812V21.5547V22.3203L20.5391 22.375C19.8516 22.5078 19 22.3515 18.5156 21.9922C17.9297 21.5625 17.6406 20.8984 17.6406 19.9844C17.6406 18.8984 18.1719 18.0703 19.0703 17.7656C19.5938 17.5937 20.7891 17.5859 21.3672 17.7656C21.5781 17.8281 21.7656 17.875 21.7734 17.8594C21.7891 17.8437 21.875 17.5625 21.9688 17.2265C22.1094 16.7187 22.1172 16.6172 22.0234 16.5547C21.7578 16.3828 21.2891 16.3125 20.2734 16.2812C19.3828 16.2578 19.0938 16.2812 18.7031 16.3906Z" fill="black"/>
<path d="M9.88281 19.8594C9.28906 21.8047 8.78906 23.4609 8.76562 23.5312C8.73437 23.6562 8.8125 23.6719 9.59375 23.6719H10.4609L10.5781 23.2578C10.6406 23.0391 10.7578 22.6172 10.8281 22.3203L10.9687 21.7969H12.0312H13.0937L13.375 22.7109L13.6484 23.6328L14.5547 23.6562C15.2656 23.6719 15.4609 23.6562 15.4297 23.5781C15.3828 23.4219 13.2656 16.6172 13.2266 16.4609C13.1875 16.3438 13.0625 16.3281 12.0781 16.3281H10.9609L9.88281 19.8594ZM12.3906 18.9141C12.5937 19.6172 12.7734 20.2734 12.7891 20.3672C12.8281 20.5469 12.8203 20.5469 12.0391 20.5469C11.6094 20.5469 11.25 20.5234 11.25 20.4844C11.25 20.4531 11.3516 20.0781 11.4766 19.6406C11.6016 19.2109 11.7578 18.5703 11.8359 18.2188C11.9141 17.8672 11.9922 17.5859 12.0078 17.6016C12.0234 17.6172 12.1953 18.2109 12.3906 18.9141Z" fill="black"/>
<path d="M23.6719 20V23.6719H26.0547H28.4375V23.0078V22.3438H26.9141H25.3906V21.4453V20.5469H26.7578H28.125V19.8828V19.2188H26.7578H25.3906V18.4375V17.6562H26.8359H28.2812V16.9922V16.3281H25.9766H23.6719V20Z" fill="black"/>
</svg>
