<svg width="112" height="87" viewBox="0 0 112 87" fill="none" xmlns="http://www.w3.org/2000/svg">
<path d="M98.996 70.9467C104.741 65.601 108.736 59.2639 110.644 52.4714C112.552 45.6788 112.317 38.6308 109.959 31.9234C107.6 25.216 103.188 19.0466 97.0946 13.9371C91.0014 8.82765 83.4067 4.92838 74.9531 2.56918C66.4994 0.209977 57.4354 -0.539747 48.5279 0.383427C39.6203 1.3066 31.1313 3.87552 23.7789 7.87286C16.4265 11.8702 10.427 17.1784 6.28797 23.3483C2.14895 29.5183 -0.00785037 36.3685 2.14706e-05 43.3195C0.00304217 53.4242 4.607 63.2054 13.004 70.9467L12.924 70.9993C13.204 71.2591 13.524 71.4819 13.812 71.7387C14.172 72.0573 14.56 72.3574 14.932 72.6668C16.052 73.6073 17.204 74.5107 18.412 75.3584C18.78 75.6182 19.16 75.8595 19.532 76.107C20.812 76.9609 22.128 77.7715 23.492 78.5263C23.668 78.6192 23.828 78.7398 24.004 78.8357V78.7986C33.3724 83.8976 44.5484 86.6342 56.004 86.6342C67.4596 86.6342 78.6356 83.8976 88.004 78.7986V78.8357C88.18 78.7398 88.336 78.6192 88.516 78.5263C89.876 77.7684 91.196 76.9609 92.476 76.107C92.848 75.8595 93.228 75.6151 93.596 75.3584C94.804 74.5076 95.956 73.6073 97.076 72.6668C97.448 72.3574 97.832 72.0573 98.196 71.7387C98.48 71.4819 98.804 71.2591 99.084 70.9962L98.996 70.9467ZM56 18.5695C59.5601 18.5695 63.0402 19.386 66.0003 20.9157C68.9604 22.4455 71.2675 24.6198 72.6298 27.1637C73.9922 29.7076 74.3487 32.5068 73.6542 35.2074C72.9596 37.908 71.2453 40.3886 68.7279 42.3356C66.2106 44.2826 63.0033 45.6085 59.5116 46.1457C56.02 46.6829 52.4008 46.4072 49.1117 45.3535C45.8226 44.2998 43.0114 42.5154 41.0336 40.2259C39.0557 37.9365 38 35.2448 38 32.4914C38 28.799 39.8964 25.258 43.2721 22.6471C46.6478 20.0362 51.2261 18.5695 56 18.5695ZM24.028 70.9467C24.0974 66.8845 26.2318 63.0067 29.9695 60.1524C33.7071 57.298 38.7474 55.6966 44 55.6945H68C73.2526 55.6966 78.2929 57.298 82.0306 60.1524C85.7682 63.0067 87.9026 66.8845 87.972 70.9467C79.1994 77.0609 67.8091 80.4447 56 80.4447C44.191 80.4447 32.8007 77.0609 24.028 70.9467Z" fill="black"/>
</svg>
