<svg width="46" height="45" viewBox="0 0 46 45" fill="none" xmlns="http://www.w3.org/2000/svg">
<path d="M13.125 8H31.875C32.8696 8 33.8234 8.31607 34.5266 8.87868C35.2299 9.44129 35.625 10.2044 35.625 11V35C35.625 35.7956 35.2299 36.5587 34.5266 37.1213C33.8234 37.6839 32.8696 38 31.875 38H13.125C12.1304 38 11.1766 37.6839 10.4733 37.1213C9.77009 36.5587 9.375 35.7956 9.375 35V11C9.375 10.2044 9.77009 9.44129 10.4733 8.87868C11.1766 8.31607 12.1304 8 13.125 8ZM13.125 11V17H31.875V11H13.125ZM13.125 20V23H16.875V20H13.125ZM20.625 20V23H24.375V20H20.625ZM28.125 20V23H31.875V20H28.125ZM13.125 26V29H16.875V26H13.125ZM20.625 26V29H24.375V26H20.625ZM28.125 26V29H31.875V26H28.125ZM13.125 32V35H16.875V32H13.125ZM20.625 32V35H24.375V32H20.625ZM28.125 32V35H31.875V32H28.125Z" fill="black"/>
</svg>
