<svg width="27" height="30" viewBox="0 0 27 30" fill="none" xmlns="http://www.w3.org/2000/svg">
<path d="M4.125 0H22.875C23.8696 0 24.8234 0.31607 25.5266 0.87868C26.2299 1.44129 26.625 2.20435 26.625 3V27C26.625 27.7956 26.2299 28.5587 25.5266 29.1213C24.8234 29.6839 23.8696 30 22.875 30H4.125C3.13044 30 2.17661 29.6839 1.47335 29.1213C0.770088 28.5587 0.375 27.7956 0.375 27V3C0.375 2.20435 0.770088 1.44129 1.47335 0.87868C2.17661 0.31607 3.13044 0 4.125 0ZM4.125 3V9H22.875V3H4.125ZM4.125 12V15H7.875V12H4.125ZM11.625 12V15H15.375V12H11.625ZM19.125 12V15H22.875V12H19.125ZM4.125 18V21H7.875V18H4.125ZM11.625 18V21H15.375V18H11.625ZM19.125 18V21H22.875V18H19.125ZM4.125 24V27H7.875V24H4.125ZM11.625 24V27H15.375V24H11.625ZM19.125 24V27H22.875V24H19.125Z" fill="black"/>
</svg>
