<svg width="44" height="40" viewBox="0 0 44 40" fill="none" xmlns="http://www.w3.org/2000/svg">
<path d="M3.125 25C3.125 26.1458 3.31217 27.2526 3.68652 28.3203C4.06087 29.388 4.58171 30.3841 5.24902 31.3086C5.91634 32.2331 6.73014 33.0729 7.69043 33.8281C8.65072 34.5833 9.70866 35.2344 10.8643 35.7812C12.0199 36.3281 13.265 36.7513 14.5996 37.0508C15.9342 37.3503 17.3177 37.5 18.75 37.5C19.8242 37.5 20.8903 37.4154 21.9482 37.2461C23.0062 37.0768 24.0234 36.8099 25 36.4453V39.1211C22.998 39.707 20.9147 40 18.75 40C17.0247 40 15.3646 39.8242 13.7695 39.4727C12.1745 39.1211 10.6852 38.6133 9.30176 37.9492C7.91829 37.2852 6.64876 36.5039 5.49316 35.6055C4.33756 34.707 3.361 33.6979 2.56348 32.5781C1.76595 31.4583 1.13932 30.2604 0.683594 28.9844C0.227865 27.7083 0 26.3802 0 25C0 23.9062 0.146484 22.832 0.439453 21.7773C0.732422 20.7227 1.1556 19.7135 1.70898 18.75C2.26237 17.7865 2.94596 16.875 3.75977 16.0156C4.57357 15.1562 5.49316 14.362 6.51855 13.6328C6.61621 14.1146 6.7627 14.6224 6.95801 15.1562C7.15332 15.6901 7.38932 16.2174 7.66602 16.7383C7.94271 17.2591 8.25195 17.7604 8.59375 18.2422C8.93555 18.724 9.3099 19.1471 9.7168 19.5117C10.0749 19.8372 10.498 20 10.9863 20C11.4258 20 11.792 19.8763 12.085 19.6289C12.3779 19.3815 12.5326 19.082 12.5488 18.7305C12.5488 18.5872 12.5244 18.457 12.4756 18.3398C12.4268 18.2227 12.3454 18.1055 12.2314 17.9883C11.32 16.9206 10.6201 15.8594 10.1318 14.8047C9.64355 13.75 9.39128 12.5651 9.375 11.25C9.375 9.70052 9.74121 8.24219 10.4736 6.875C11.2061 5.50781 12.2152 4.31641 13.501 3.30078C14.7868 2.28516 16.276 1.48438 17.9688 0.898438C19.6615 0.3125 21.4844 0.0130208 23.4375 0H25V1.25C25 3.55469 25.5371 5.70312 26.6113 7.69531C27.6855 9.6875 29.2318 11.4974 31.25 13.125C33.2682 14.7526 34.8145 16.5625 35.8887 18.5547C36.9629 20.5469 37.5 22.6953 37.5 25H34.375C34.375 23.0208 33.9193 21.1914 33.0078 19.5117C32.0964 17.832 30.778 16.2956 29.0527 14.9023C26.9368 13.1836 25.2767 11.3086 24.0723 9.27734C22.8678 7.24609 22.1517 5.01302 21.9238 2.57812C20.5729 2.72135 19.3278 3.04688 18.1885 3.55469C17.0492 4.0625 16.0482 4.70703 15.1855 5.48828C14.3229 6.26953 13.6637 7.14844 13.208 8.125C12.7523 9.10156 12.5163 10.1432 12.5 11.25C12.5 12.2786 12.6872 13.1966 13.0615 14.0039C13.4359 14.8112 13.9893 15.6315 14.7217 16.4648C15.0309 16.8294 15.2669 17.181 15.4297 17.5195C15.5924 17.8581 15.682 18.2617 15.6982 18.7305C15.6982 19.2513 15.5762 19.7396 15.332 20.1953C15.0879 20.651 14.7461 21.0482 14.3066 21.3867C13.8672 21.7253 13.3708 21.9987 12.8174 22.207C12.264 22.4154 11.6536 22.513 10.9863 22.5C10.2376 22.5 9.57845 22.3893 9.00879 22.168C8.43913 21.9466 7.93457 21.6471 7.49512 21.2695C7.05566 20.8919 6.6569 20.4688 6.29883 20C5.94076 19.5312 5.62337 19.0625 5.34668 18.5938C4.61426 19.5703 4.06087 20.599 3.68652 21.6797C3.31217 22.7604 3.125 23.8672 3.125 25ZM43.75 32.5V35H37.5V40H34.375V35H28.125V32.5H34.375V27.5H37.5V32.5H43.75Z" fill="#FA0A0A"/>
</svg>
