<svg width="50" height="30" viewBox="0 0 50 30" fill="none" xmlns="http://www.w3.org/2000/svg">
<path d="M46.6667 0H3.33333C2.44928 0 1.60143 0.351189 0.976311 0.976311C0.35119 1.60143 0 2.44928 0 3.33333V26.6667C0 27.5507 0.35119 28.3986 0.976311 29.0237C1.60143 29.6488 2.44928 30 3.33333 30H46.6667C47.5507 30 48.3986 29.6488 49.0237 29.0237C49.6488 28.3986 50 27.5507 50 26.6667V3.33333C50 2.44928 49.6488 1.60143 49.0237 0.976311C48.3986 0.351189 47.5507 0 46.6667 0ZM15.625 26.6667L3.33333 15.9167V14.0833L15.625 3.33333H34.375L46.6667 14.0833V15.9167L34.375 26.6667H15.625ZM46.6667 9.66667L39.4375 3.33333H46.6667V9.66667ZM10.5625 3.33333L3.33333 9.66667V3.33333H10.5625ZM3.33333 20.3333L10.5625 26.6667H3.33333V20.3333ZM46.6667 26.6667H39.4375L46.6667 20.3333V26.6667ZM25 6.66667C23.3518 6.66667 21.7407 7.15541 20.3702 8.07109C18.9998 8.98677 17.9317 10.2883 17.301 11.811C16.6703 13.3337 16.5052 15.0092 16.8268 16.6258C17.1483 18.2423 17.942 19.7271 19.1074 20.8926C20.2729 22.058 21.7577 22.8517 23.3742 23.1732C24.9908 23.4948 26.6663 23.3297 28.189 22.699C29.7117 22.0683 31.0132 21.0002 31.9289 19.6298C32.8446 18.2593 33.3333 16.6482 33.3333 15C33.3333 12.7899 32.4554 10.6702 30.8926 9.10744C29.3298 7.54464 27.2101 6.66667 25 6.66667ZM25 20C24.0111 20 23.0444 19.7068 22.2221 19.1573C21.3999 18.6079 20.759 17.827 20.3806 16.9134C20.0022 15.9998 19.9031 14.9945 20.0961 14.0245C20.289 13.0546 20.7652 12.1637 21.4645 11.4645C22.1637 10.7652 23.0546 10.289 24.0245 10.0961C24.9945 9.90315 25.9998 10.0022 26.9134 10.3806C27.827 10.759 28.6079 11.3999 29.1573 12.2221C29.7068 13.0444 30 14.0111 30 15C29.9945 16.3244 29.466 17.593 28.5295 18.5295C27.593 19.466 26.3244 19.9945 25 20Z" fill="#2DBE44"/>
</svg>
