<svg width="42" height="28" viewBox="0 0 42 28" fill="none" xmlns="http://www.w3.org/2000/svg">
<path d="M0.166626 4.00008C0.166626 3.11603 0.605613 2.26818 1.38701 1.64306C2.16842 1.01794 3.22822 0.666748 4.33329 0.666748H37.6666C38.7717 0.666748 39.8315 1.01794 40.6129 1.64306C41.3943 2.26818 41.8333 3.11603 41.8333 4.00008V24.0001C41.8333 24.8841 41.3943 25.732 40.6129 26.3571C39.8315 26.9822 38.7717 27.3334 37.6666 27.3334H4.33329C3.22822 27.3334 2.16842 26.9822 1.38701 26.3571C0.605613 25.732 0.166626 24.8841 0.166626 24.0001V4.00008ZM7.49788 4.00008L21 13.4517L34.502 4.00008H7.49788ZM37.6666 6.21508L22.3729 16.9217C21.993 17.188 21.5051 17.3348 21 17.3348C20.4949 17.3348 20.007 17.188 19.627 16.9217L4.33329 6.21508V24.0001H37.6666V6.21508Z" fill="black"/>
</svg>
