<svg width="40" height="40" viewBox="0 0 40 40" fill="none" xmlns="http://www.w3.org/2000/svg">
<path d="M8.05333 3.09329C5.35111 3.71552 2.72 5.75996 1.52889 8.19552C-0.355554 12.0177 0.213334 16.1955 3.04 19.2533C4.49778 20.8533 6.15111 21.76 8.58667 22.2933L9.06667 22.4V24.8889V27.3777H6.32889H3.57333L3.21778 27.84C2.75556 28.4266 2.75556 28.8177 3.14667 29.3155C3.44889 29.6533 3.66222 29.6889 6.22222 29.7244L8.97778 29.7777L9.06667 33.2089C9.15556 36.3555 9.19111 36.6755 9.49333 36.9066C9.68889 37.0489 9.95556 37.1555 10.0978 37.1555C10.3111 37.1555 10.9867 36.8711 11.2 36.6755C11.2533 36.6222 11.3244 35.0577 11.3778 33.1911L11.4667 29.7777L13.9556 29.7422C15.3244 29.7066 16.6044 29.6533 16.8178 29.6C17.6533 29.4044 17.7067 28 16.9067 27.5733C16.7111 27.4666 15.4489 27.3777 13.9733 27.3777H11.3778V24.8889V22.4L11.8756 22.3111C13.9911 21.8489 15.6978 20.9244 17.1733 19.4489C20.0533 16.5689 20.7467 12.0355 18.88 8.21329C18.2933 7.00441 16.6756 5.22663 15.4489 4.42663C13.3511 3.07552 10.4178 2.55996 8.05333 3.09329ZM12.2844 5.61774C16.5867 6.87996 18.7556 11.7333 16.8178 15.7689C14.6133 20.3733 8.60445 21.4222 5.01333 17.8311C1.10222 13.92 2.77333 7.27107 8.08889 5.58218C9.08445 5.26218 11.1467 5.27996 12.2844 5.61774Z" fill="black"/>
<path d="M25.6 7.2532C21.8311 10.3999 21.4222 10.8088 21.3689 11.3421C21.2978 12.0888 21.7422 12.6221 22.4178 12.6221C22.7911 12.6221 23.5911 12.0532 25.7244 10.2932L28.5333 7.96431L28.5867 12.711C28.6044 15.3421 28.6044 17.511 28.5689 17.5465C28.5333 17.5821 28.0178 17.7243 27.4489 17.8665C23.8933 18.7732 20.9778 21.7421 20.2667 25.191C19.9644 26.6488 20.1244 29.3688 20.5867 30.6665C22.5778 36.1776 28.9067 38.6843 34.1867 36.0532C40 33.1376 41.3511 25.4576 36.9067 20.6754C35.5022 19.1643 33.6711 18.1688 31.4311 17.6888L30.9333 17.5999V12.7999C30.9333 10.151 31.0044 7.99987 31.0756 7.99987C31.1467 7.99987 32.4444 9.03098 33.9378 10.311C36.8 12.7465 37.1911 12.9421 37.8667 12.2665C38.2222 11.911 38.3289 11.111 38.08 10.7376C37.92 10.4888 29.9911 3.7332 29.8667 3.75098C29.8133 3.75098 27.8933 5.31542 25.6 7.2532ZM32.3378 20.4621C36.1067 21.7599 38.0978 26.2399 36.6222 30.0976C36.0711 31.5554 34.4533 33.2443 32.9067 33.991C31.3956 34.7199 29.2089 34.8799 27.7156 34.3999C22.3467 32.6576 20.6756 26.0976 24.6044 22.1688C26.6133 20.1599 29.5644 19.5021 32.3378 20.4621Z" fill="black"/>
</svg>
