<svg width="37" height="34" viewBox="0 0 37 34" fill="none" xmlns="http://www.w3.org/2000/svg">
<path d="M7.58329 0.333252C11.2916 0.333252 13.1458 3.93325 10.5416 6.03325C7.91663 8.11659 3.41663 6.63325 3.41663 3.66659C3.41663 2.78253 3.85561 1.93468 4.63701 1.30956C5.41842 0.684441 6.47822 0.333252 7.58329 0.333252ZM4.45829 8.66658H10.7083C11.8134 8.66658 12.8732 9.01777 13.6546 9.6429C14.436 10.268 14.875 11.1159 14.875 11.9999V21.1666H11.75V33.6666H3.41663V21.1666H0.291626V11.9999C0.291626 11.1159 0.730613 10.268 1.51201 9.6429C2.29342 9.01777 3.35322 8.66658 4.45829 8.66658ZM36.75 10.3333H24.25V13.6666H36.75M36.75 15.3333H30.5V18.6666H36.75M36.75 0.333252H24.25V3.66659H36.75M36.75 5.33325H30.5V8.66658H36.75M36.75 20.3333H24.25V23.6666H36.75M36.75 30.3333H24.25V33.6666H36.75M36.75 25.3333H30.5V28.6666H36.75" fill="black"/>
</svg>
