<svg width="45" height="34" viewBox="0 0 45 34" fill="none" xmlns="http://www.w3.org/2000/svg">
<g clip-path="url(#clip0_50_84)">
<path fill-rule="evenodd" clip-rule="evenodd" d="M33.7499 2.83325C34.696 2.83303 35.6072 3.10299 36.3009 3.58904C36.9946 4.07508 37.4195 4.74128 37.4905 5.45409L37.4999 5.66659V28.3333C37.5002 29.0481 37.1429 29.7366 36.4996 30.2607C35.8563 30.7848 34.9745 31.1059 34.0311 31.1595L33.7499 31.1666H11.2499C10.3038 31.1668 9.39256 30.8968 8.69885 30.4108C8.00513 29.9248 7.58021 29.2586 7.50925 28.5458L7.49988 28.3333V26.9166C7.02198 26.9162 6.56232 26.7779 6.21481 26.5301C5.86731 26.2822 5.65819 25.9434 5.63018 25.5829C5.60217 25.2225 5.75739 24.8675 6.06412 24.5907C6.37085 24.3138 6.80595 24.1358 7.2805 24.0932L7.49988 24.0833V21.2499C7.02198 21.2495 6.56232 21.1113 6.21481 20.8634C5.86731 20.6155 5.65819 20.2767 5.63018 19.9163C5.60217 19.5558 5.75739 19.2009 6.06412 18.924C6.37085 18.6471 6.80595 18.4691 7.2805 18.4265L7.49988 18.4166V15.5833C7.02198 15.5829 6.56232 15.4446 6.21481 15.1967C5.86731 14.9488 5.65819 14.6101 5.63018 14.2496C5.60217 13.8891 5.75739 13.5342 6.06412 13.2573C6.37085 12.9804 6.80595 12.8025 7.2805 12.7598L7.49988 12.7499V9.91658C7.02198 9.91618 6.56232 9.77792 6.21481 9.53005C5.86731 9.28218 5.65819 8.9434 5.63018 8.58294C5.60217 8.22248 5.75739 7.86755 6.06412 7.59066C6.37085 7.31376 6.80595 7.13582 7.2805 7.09317L7.49988 7.08325V5.66659C7.49958 4.95177 7.85689 4.26328 8.50018 3.73914C9.14348 3.215 10.0252 2.89395 10.9686 2.84034L11.2499 2.83325H33.7499ZM33.7499 5.66659H11.2499V28.3333H33.7499V5.66659ZM29.0624 8.49992C29.7615 8.49994 30.4356 8.69672 30.9532 9.05188C31.4707 9.40704 31.7946 9.89511 31.8617 10.4209L31.8749 10.6249V13.4583C31.8748 13.9865 31.6144 14.4958 31.1443 14.8868C30.6743 15.2779 30.0283 15.5226 29.3324 15.5733L29.0624 15.5833H15.9374C15.2382 15.5832 14.5641 15.3864 14.0466 15.0313C13.529 14.6761 13.2051 14.1881 13.138 13.6623L13.1249 13.4583V10.6249C13.1249 10.0967 13.3854 9.58736 13.8554 9.19632C14.3255 8.80529 14.9714 8.56055 15.6674 8.50984L15.9374 8.49992H29.0624ZM28.1249 11.3333H16.8749V12.7499H28.1249V11.3333Z" fill="black"/>
</g>
<defs>
<clipPath id="clip0_50_84">
<rect width="45" height="34" fill="white"/>
</clipPath>
</defs>
</svg>
