<svg width="33" height="30" viewBox="0 0 33 30" fill="none" xmlns="http://www.w3.org/2000/svg">
<path fill-rule="evenodd" clip-rule="evenodd" d="M28.7499 0.833252C29.696 0.833026 30.6072 1.10299 31.3009 1.58904C31.9946 2.07508 32.4195 2.74128 32.4905 3.45409L32.4999 3.66659V26.3333C32.5002 27.0481 32.1429 27.7366 31.4996 28.2607C30.8563 28.7848 29.9745 29.1059 29.0311 29.1595L28.7499 29.1666H6.24988C5.3038 29.1668 4.39256 28.8968 3.69885 28.4108C3.00513 27.9248 2.58021 27.2586 2.50925 26.5458L2.49988 26.3333V24.9166C2.02198 24.9162 1.56232 24.7779 1.21481 24.53C0.867305 24.2822 0.658185 23.9434 0.630178 23.5829C0.602171 23.2225 0.757391 22.8675 1.06412 22.5907C1.37085 22.3138 1.80595 22.1358 2.2805 22.0932L2.49988 22.0833V19.2499C2.02198 19.2495 1.56232 19.1113 1.21481 18.8634C0.867305 18.6155 0.658185 18.2767 0.630178 17.9163C0.602171 17.5558 0.757391 17.2009 1.06412 16.924C1.37085 16.6471 1.80595 16.4691 2.2805 16.4265L2.49988 16.4166V13.5833C2.02198 13.5829 1.56232 13.4446 1.21481 13.1967C0.867305 12.9488 0.658185 12.6101 0.630178 12.2496C0.602171 11.8891 0.757391 11.5342 1.06412 11.2573C1.37085 10.9804 1.80595 10.8025 2.2805 10.7598L2.49988 10.7499V7.91659C2.02198 7.91618 1.56232 7.77792 1.21481 7.53005C0.867305 7.28218 0.658185 6.9434 0.630178 6.58294C0.602171 6.22248 0.757391 5.86755 1.06412 5.59066C1.37085 5.31376 1.80595 5.13582 2.2805 5.09317L2.49988 5.08325V3.66659C2.49958 2.95177 2.85689 2.26328 3.50018 1.73914C4.14348 1.215 5.02521 0.893947 5.96863 0.840336L6.24988 0.833252H28.7499ZM28.7499 3.66659H6.24988V26.3333H28.7499V3.66659ZM24.0624 6.49992C24.7615 6.49994 25.4356 6.69672 25.9532 7.05188C26.4707 7.40704 26.7946 7.89511 26.8618 8.42092L26.8749 8.62492V11.4583C26.8748 11.9865 26.6144 12.4958 26.1443 12.8868C25.6743 13.2779 25.0283 13.5226 24.3324 13.5733L24.0624 13.5833H10.9374C10.2382 13.5832 9.56414 13.3864 9.04659 13.0313C8.52904 12.6761 8.20512 12.1881 8.138 11.6623L8.12488 11.4583V8.62492C8.12491 8.09667 8.38535 7.58736 8.85541 7.19632C9.32547 6.80529 9.97145 6.56055 10.6674 6.50984L10.9374 6.49992H24.0624ZM23.1249 9.33325H11.8749V10.7499H23.1249V9.33325Z" fill="black"/>
</svg>
