<svg width="40" height="40" viewBox="0 0 40 40" fill="none" xmlns="http://www.w3.org/2000/svg">
<g clip-path="url(#clip0_320_16)">
<path d="M33.62 0.537185C33.474 0.613985 33.2816 0.767985 33.1968 0.883185C33.0508 1.08318 33.0428 1.22159 33.02 3.22159L32.9968 5.35199L25.7132 12.636C19.006 19.3504 18.4064 19.9272 18.1756 19.9272C17.7064 19.9272 17.068 20.3656 16.7912 20.8888C16.6064 21.2348 16.622 22.0424 16.8296 22.4272C17.2372 23.1964 18.0988 23.55 18.9064 23.2808C19.5216 23.0808 20.0832 22.3808 20.0832 21.8348C20.0832 21.604 20.6448 21.0116 27.3748 14.2896L34.6584 7.00599H36.6888C38.3964 7.00599 38.75 6.98279 38.9732 6.88279C39.7964 6.49039 39.8116 5.26759 39.004 4.85239C38.7272 4.71399 38.558 4.69839 37.0044 4.69839H35.3124V3.00639C35.3124 1.45279 35.2972 1.28359 35.1584 1.00679C34.8812 0.460386 34.166 0.237185 33.62 0.537185Z" fill="black"/>
<path d="M17.2756 3.69839C14.876 3.84439 12.73 4.41359 10.5072 5.49799C7.56922 6.93639 5.23082 8.98239 3.43882 11.6588C-0.822382 18.02 -0.583981 26.3112 4.03882 32.4644C4.73882 33.4028 6.14642 34.8564 7.08482 35.61C14.8532 41.8632 26.198 40.6248 32.4124 32.8488C34.4736 30.272 35.8504 26.9648 36.2352 23.6576C36.3584 22.5964 36.3428 20.3732 36.2044 19.3504C35.9352 17.3044 35.4044 15.5664 34.5048 13.7356C33.8896 12.4744 32.9512 10.982 32.8128 11.036C32.636 11.0976 30.9976 12.336 31.0208 12.382C31.036 12.4052 31.236 12.7204 31.4744 13.082C32.6436 14.8432 33.4048 16.7584 33.8204 18.9812C34.0128 20.0504 34.0512 22.45 33.8896 23.6496C32.9668 30.5256 27.7056 35.9636 20.9144 37.0788C15.922 37.8944 10.8688 36.264 7.30762 32.6872C4.62322 29.9876 3.08482 26.6264 2.76202 22.7652C2.58522 20.5888 2.93882 18.1428 3.73882 16.0816C5.85402 10.5824 10.7764 6.76719 16.6528 6.07519C17.6372 5.95999 20.1292 6.02919 21.0292 6.19839C23.252 6.60599 25.1672 7.36759 26.9284 8.53679C27.29 8.77519 27.6052 8.97519 27.6284 8.99039C27.6748 9.01359 28.9128 7.37519 28.9744 7.19839C29.0284 7.05999 27.536 6.12159 26.2748 5.49839C23.4672 4.12159 20.4444 3.51399 17.2756 3.69839Z" fill="black"/>
<path d="M17.2371 9.58998C15.7603 9.76678 14.1991 10.2132 13.0451 10.7976C9.66112 12.4976 7.36112 15.4508 6.53032 19.166C6.37632 19.8736 6.35352 20.166 6.35352 21.658C6.35352 23.1116 6.38432 23.4576 6.52272 24.096C6.77672 25.2112 7.03792 25.9344 7.58432 27.0416C8.73792 29.372 10.6379 31.272 12.9683 32.418C14.7835 33.318 15.9527 33.61 17.9679 33.6716C19.5523 33.7176 20.4983 33.61 21.7907 33.2256C28.5819 31.2104 32.2047 23.7884 29.6203 17.2124C29.2819 16.3508 28.7203 15.2896 28.6279 15.328C28.5895 15.3432 28.1435 15.6048 27.6359 15.92L26.7131 16.4892L27.0823 17.2276C27.8203 18.712 28.1203 20.004 28.1127 21.6964C28.0975 24.2808 27.2051 26.488 25.4055 28.4032C21.8443 32.172 15.7295 32.4028 11.8687 28.9032C9.74552 26.988 8.62272 24.4576 8.62272 21.6116C8.62272 17.5736 11.0995 13.974 14.8987 12.5128C16.0295 12.082 17.0215 11.8976 18.3135 11.8976C20.0055 11.89 21.3055 12.19 22.7747 12.9284L23.5131 13.2976L24.1131 12.3284C24.8131 11.2056 24.8591 11.3592 23.6591 10.7748C22.0439 9.98238 20.5363 9.62118 18.6983 9.58278C18.0447 9.56678 17.3831 9.57478 17.2371 9.58998Z" fill="black"/>
<path d="M16.8523 15.6276C14.4451 16.2508 12.6451 18.2352 12.2455 20.6964C12.0455 21.904 12.2455 23.196 12.8071 24.3344C14.6839 28.1876 19.7295 29.026 22.7599 25.9956C23.5751 25.1804 24.0983 24.2496 24.3903 23.1268C24.6443 22.1116 24.5671 20.0812 24.2671 20.0812C24.1823 20.0812 22.8135 20.4348 22.3055 20.5888C22.1979 20.6196 22.1903 20.7272 22.2211 21.3348C22.2367 21.7424 22.2211 22.2268 22.1671 22.4656C21.7363 24.4652 19.6599 25.85 17.6907 25.4424C16.8063 25.2656 16.2831 24.9808 15.6523 24.358C15.0291 23.7272 14.7447 23.2044 14.5679 22.3196C14.1603 20.3584 15.5139 18.32 17.5367 17.8508C17.7907 17.7892 18.2291 17.766 18.6675 17.7892L19.3827 17.8276L19.4979 17.4352C19.7823 16.4276 19.9515 15.6968 19.9055 15.6508C19.6831 15.428 17.6831 15.4124 16.8523 15.6276Z" fill="black"/>
</g>
<defs>
<clipPath id="clip0_320_16">
<rect width="40" height="40" fill="white"/>
</clipPath>
</defs>
</svg>
