<svg width="39" height="37" viewBox="0 0 39 37" fill="none" xmlns="http://www.w3.org/2000/svg">
<path d="M35.8618 30.3516C33.7251 26.8563 30.4079 24.1472 26.4469 22.6625C28.391 21.2792 29.827 19.3507 30.5515 17.1502C31.2761 14.9496 31.2525 12.5886 30.484 10.4014C29.7156 8.21431 28.2412 6.31202 26.2699 4.96401C24.2985 3.616 21.9301 2.89063 19.5 2.89062C17.07 2.89063 14.7015 3.616 12.7302 4.96401C10.7588 6.31202 9.28452 8.21431 8.51607 10.4014C7.74762 12.5886 7.724 14.9496 8.44857 17.1502C9.17313 19.3507 10.6091 21.2792 12.5532 22.6625C8.59219 24.1472 5.27503 26.8563 3.13832 30.3516C2.8959 30.7502 2.83033 31.2239 2.95604 31.6684C3.08175 32.1129 3.38843 32.4919 3.80864 32.7219C4.22884 32.9519 4.72813 33.0141 5.19668 32.8948C5.66523 32.7756 6.06465 32.4846 6.30707 32.0859C7.64422 29.889 9.56735 28.0646 11.8832 26.7962C14.199 25.5278 16.826 24.86 19.5 24.86C22.1741 24.86 24.8011 25.5278 27.1169 26.7962C29.4327 28.0646 31.3559 29.889 32.693 32.0859C32.8547 32.3488 33.086 32.567 33.3638 32.7191C33.6417 32.8712 33.9566 32.9519 34.2774 32.9531C34.5985 32.9556 34.9143 32.8757 35.1914 32.7219C35.3996 32.6081 35.5821 32.4565 35.7285 32.2757C35.8748 32.095 35.9822 31.8887 36.0445 31.6685C36.1067 31.4484 36.1226 31.2188 36.0913 30.9928C36.0599 30.7668 35.9819 30.5489 35.8618 30.3516ZM11.5782 13.875C11.5782 12.3885 12.0428 10.9355 12.9132 9.69954C13.7837 8.4636 15.0209 7.50031 16.4685 6.93147C17.916 6.36263 19.5088 6.21379 21.0455 6.50379C22.5822 6.79378 23.9938 7.50957 25.1017 8.56065C26.2095 9.61173 26.964 10.9509 27.2697 12.4088C27.5754 13.8667 27.4185 15.3778 26.8189 16.7511C26.2193 18.1244 25.2039 19.2982 23.9012 20.124C22.5985 20.9498 21.0668 21.3906 19.5 21.3906C17.399 21.3906 15.3841 20.5988 13.8984 19.1893C12.4128 17.7799 11.5782 15.8683 11.5782 13.875Z" fill="black"/>
</svg>
