<svg width="35" height="31" viewBox="0 0 35 31" fill="none" xmlns="http://www.w3.org/2000/svg">
<path d="M33.8618 28.3516C31.7251 24.8563 28.4079 22.1472 24.4469 20.6625C26.391 19.2792 27.827 17.3507 28.5515 15.1502C29.2761 12.9496 29.2525 10.5886 28.484 8.40144C27.7156 6.21431 26.2412 4.31202 24.2699 2.96401C22.2985 1.616 19.9301 0.890625 17.5 0.890625C15.07 0.890625 12.7015 1.616 10.7302 2.96401C8.75884 4.31202 7.28452 6.21431 6.51607 8.40144C5.74762 10.5886 5.724 12.9496 6.44857 15.1502C7.17313 17.3507 8.60913 19.2792 10.5532 20.6625C6.59219 22.1472 3.27503 24.8563 1.13832 28.3516C0.8959 28.7502 0.83033 29.2239 0.956038 29.6684C1.08175 30.1129 1.38843 30.4919 1.80864 30.7219C2.22884 30.9519 2.72813 31.0141 3.19668 30.8948C3.66523 30.7756 4.06465 30.4846 4.30707 30.0859C5.64422 27.889 7.56735 26.0646 9.88319 24.7962C12.199 23.5278 14.826 22.86 17.5 22.86C20.1741 22.86 22.8011 23.5278 25.1169 24.7962C27.4327 26.0646 29.3559 27.889 30.693 30.0859C30.8547 30.3488 31.086 30.567 31.3638 30.7191C31.6417 30.8712 31.9566 30.9519 32.2774 30.9531C32.5985 30.9556 32.9143 30.8757 33.1914 30.7219C33.3996 30.6081 33.5821 30.4565 33.7285 30.2757C33.8748 30.095 33.9822 29.8887 34.0445 29.6685C34.1067 29.4484 34.1226 29.2188 34.0913 28.9928C34.0599 28.7668 33.9819 28.5489 33.8618 28.3516ZM9.57817 11.875C9.57817 10.3885 10.0428 8.93548 10.9132 7.69954C11.7837 6.4636 13.0209 5.50031 14.4685 4.93147C15.916 4.36263 17.5088 4.21379 19.0455 4.50379C20.5822 4.79378 21.9938 5.50957 23.1017 6.56065C24.2095 7.61173 24.964 8.95089 25.2697 10.4088C25.5754 11.8667 25.4185 13.3778 24.8189 14.7511C24.2193 16.1244 23.2039 17.2982 21.9012 18.124C20.5985 18.9498 19.0668 19.3906 17.5 19.3906C15.399 19.3906 13.3841 18.5988 11.8984 17.1893C10.4128 15.7799 9.57817 13.8683 9.57817 11.875Z" fill="black"/>
</svg>
