<svg width="34" height="28" viewBox="0 0 34 28" fill="none" xmlns="http://www.w3.org/2000/svg">
<path d="M17 3.83341C17.5746 3.83341 18.1435 3.92394 18.6743 4.09984C19.2051 4.27573 19.6874 4.53354 20.0936 4.85854C20.4999 5.18355 20.8221 5.56938 21.042 5.99402C21.2619 6.41866 21.375 6.87379 21.375 7.33341C21.375 7.79304 21.2619 8.24817 21.042 8.67281C20.8221 9.09745 20.4999 9.48328 20.0936 9.80829C19.6874 10.1333 19.2051 10.3911 18.6743 10.567C18.1435 10.7429 17.5746 10.8334 17 10.8334C15.8397 10.8334 14.7269 10.4647 13.9064 9.80829C13.086 9.15191 12.625 8.26167 12.625 7.33341C12.625 6.40516 13.086 5.51492 13.9064 4.85854C14.7269 4.20216 15.8397 3.83341 17 3.83341ZM17 18.8334C23.1875 18.8334 29.7084 21.2667 29.7084 22.3334V24.1667H4.29171V22.3334C4.29171 21.2667 10.8125 18.8334 17 18.8334ZM17 0.666748C12.3959 0.666748 8.66671 3.65008 8.66671 7.33341C8.66671 11.0167 12.3959 14.0001 17 14.0001C21.6042 14.0001 25.3334 11.0167 25.3334 7.33341C25.3334 3.65008 21.6042 0.666748 17 0.666748ZM17 15.6667C11.4375 15.6667 0.333374 17.9001 0.333374 22.3334V27.3334H33.6667V22.3334C33.6667 17.9001 22.5625 15.6667 17 15.6667Z" fill="black"/>
</svg>
