<svg width="38" height="40" viewBox="0 0 38 40" fill="none" xmlns="http://www.w3.org/2000/svg">
<path d="M31.1438 0H6.85639C3.13779 0 0.112549 3.02524 0.112549 6.74376V33.2563C0.112549 36.9748 3.13779 40 6.85631 40H31.1438C34.8623 40 37.8875 36.9748 37.8875 33.2563V6.74376C37.8875 3.02524 34.8623 0 31.1438 0ZM31.1438 37.2423H6.85639C4.65849 37.2423 2.87037 35.4541 2.87037 33.2563V6.74376C2.87037 4.54587 4.65849 2.75774 6.85639 2.75774H31.1439C33.3418 2.75774 35.1298 4.54587 35.1298 6.74376V33.2563C35.1298 35.4541 33.3417 37.2423 31.1438 37.2423Z" fill="black"/>
<path d="M12.0883 13.788H25.9119C26.6733 13.788 27.2906 13.1707 27.2906 12.4091C27.2906 7.83763 23.5714 4.11841 19 4.11841C14.4286 4.11841 10.7094 7.83756 10.7094 12.4091C10.7094 13.1707 11.3269 13.788 12.0883 13.788ZM19 6.87623C21.5749 6.87623 23.7447 8.64451 24.3591 11.0303H20.3789V8.95326C20.3789 8.19178 19.7616 7.57435 19 7.57435C18.2384 7.57435 17.6211 8.1917 17.6211 8.95326V11.0303H13.6409C14.2553 8.64443 16.4251 6.87623 19 6.87623Z" fill="black"/>
<path d="M16.2459 22.8383C16.1755 21.9508 16.1091 21.1126 15.9353 20.2951C15.5414 18.4429 14.6332 16.7993 13.378 15.667C12.0201 14.4422 10.3469 13.9298 8.788 14.2614C7.22885 14.5929 5.90908 15.7418 5.16705 17.4131C4.48119 18.9583 4.32041 20.8292 4.71432 22.6815C5.03064 24.169 5.78877 25.3731 6.59127 26.6478C7.47081 28.0449 8.38034 29.4896 8.90151 31.5694C9.54198 34.1239 11.446 35.8227 13.5192 35.8226C13.7831 35.8225 14.05 35.795 14.317 35.7382C15.4629 35.4945 16.484 34.7209 17.1186 33.6156C17.8239 32.3871 17.9697 30.8988 17.5186 29.5322C16.5421 26.5744 16.3778 24.5029 16.2459 22.8383ZM14.727 32.2427C14.4858 32.6627 14.1181 32.9612 13.7433 33.0409C12.8898 33.222 11.9181 32.2615 11.5764 30.8991C10.9483 28.3926 9.82636 26.6107 8.92495 25.1787C8.22792 24.0714 7.62588 23.1152 7.41166 22.1079C7.14166 20.8385 7.24221 19.5352 7.68752 18.5322C7.91042 18.0301 8.42424 17.1583 9.36159 16.9589C9.4919 16.9311 9.62011 16.9186 9.74519 16.9186C10.52 16.9186 11.1796 17.3981 11.5308 17.7148C12.3457 18.4498 12.9678 19.5994 13.2378 20.8689C13.3741 21.5101 13.431 22.2267 13.4968 23.0563C13.6404 24.8683 13.8191 27.1235 14.8998 30.3969C15.1057 31.0202 15.0427 31.693 14.727 32.2427Z" fill="black"/>
<path d="M29.2122 14.2615C27.6531 13.9302 25.9801 14.4423 24.6222 15.6672C23.3669 16.7994 22.4588 18.443 22.0649 20.2953C21.8911 21.1127 21.8246 21.9509 21.7543 22.8384C21.6223 24.5029 21.4581 26.5745 20.4816 29.5324C20.0304 30.8991 20.1762 32.3874 20.8816 33.6159C21.516 34.721 22.5372 35.4946 23.6831 35.7384C23.9503 35.7952 24.2169 35.8228 24.4809 35.8228C26.5539 35.8227 28.4582 34.1241 29.0986 31.5695C29.6199 29.4898 30.5293 28.0452 31.4088 26.648C32.2113 25.3734 32.9695 24.1691 33.2858 22.6817C33.6797 20.8295 33.5189 18.9585 32.8331 17.4133C32.0911 15.7418 30.7714 14.5931 29.2122 14.2615ZM30.5884 22.108C30.3741 23.1153 29.7723 24.0715 29.0752 25.1788C28.1737 26.6106 27.0518 28.3927 26.4237 30.8991C26.0821 32.2616 25.1093 33.2222 24.2568 33.041C23.882 32.9613 23.5143 32.663 23.2731 32.2427C22.9574 31.6931 22.8944 31.0202 23.1003 30.3969C24.181 27.1236 24.3598 24.8684 24.5034 23.0563C24.5691 22.2267 24.6259 21.5101 24.7624 20.8689C25.0324 19.5995 25.6545 18.45 26.4694 17.7148C26.8205 17.3982 27.4802 16.9186 28.255 16.9186C28.3801 16.9186 28.5083 16.9311 28.6386 16.9589C29.5759 17.1583 30.0897 18.0301 30.3127 18.5322C30.7579 19.5352 30.8584 20.8386 30.5884 22.108Z" fill="black"/>
</svg>
